<mxfile host="app.diagrams.net" modified="2024-05-26T16:25:36.920Z" agent="Mozilla/5.0 (Windows NT 10.0; Win64; x64) AppleWebKit/537.36 (KHTML, like Gecko) Chrome/125.0.0.0 Safari/537.36" etag="gPdoHVjVPZmmjOs0Tnwa" version="24.4.8" type="github">
  <diagram id="OzyOfjKePgK2Kka0ILB-" name="Page-1">
    <mxGraphModel dx="1562" dy="905" grid="1" gridSize="10" guides="1" tooltips="1" connect="1" arrows="1" fold="1" page="1" pageScale="1" pageWidth="827" pageHeight="1169" math="0" shadow="0">
      <root>
        <mxCell id="0" />
        <mxCell id="1" parent="0" />
        <mxCell id="2CvfH3Uz7irQ21DSUV06-66" value="" style="rounded=0;whiteSpace=wrap;html=1;dashed=1;dashPattern=12 12;" parent="1" vertex="1">
          <mxGeometry x="40" y="750" width="750" height="260" as="geometry" />
        </mxCell>
        <mxCell id="2CvfH3Uz7irQ21DSUV06-41" value="" style="rounded=0;whiteSpace=wrap;html=1;dashed=1;" parent="1" vertex="1">
          <mxGeometry x="70" y="620" width="160" height="520" as="geometry" />
        </mxCell>
        <mxCell id="2CvfH3Uz7irQ21DSUV06-4" value="" style="edgeStyle=orthogonalEdgeStyle;rounded=0;orthogonalLoop=1;jettySize=auto;html=1;" parent="1" source="2CvfH3Uz7irQ21DSUV06-1" target="2CvfH3Uz7irQ21DSUV06-3" edge="1">
          <mxGeometry relative="1" as="geometry" />
        </mxCell>
        <mxCell id="2CvfH3Uz7irQ21DSUV06-1" value="course" style="rounded=0;whiteSpace=wrap;html=1;" parent="1" vertex="1">
          <mxGeometry x="100" y="40" width="120" height="60" as="geometry" />
        </mxCell>
        <mxCell id="2CvfH3Uz7irQ21DSUV06-2" value="过程" style="text;html=1;align=center;verticalAlign=middle;resizable=0;points=[];autosize=1;strokeColor=none;fillColor=none;" parent="1" vertex="1">
          <mxGeometry x="30" y="55" width="50" height="30" as="geometry" />
        </mxCell>
        <mxCell id="2CvfH3Uz7irQ21DSUV06-6" value="" style="edgeStyle=orthogonalEdgeStyle;rounded=0;orthogonalLoop=1;jettySize=auto;html=1;" parent="1" source="2CvfH3Uz7irQ21DSUV06-3" target="2CvfH3Uz7irQ21DSUV06-5" edge="1">
          <mxGeometry relative="1" as="geometry" />
        </mxCell>
        <mxCell id="2CvfH3Uz7irQ21DSUV06-3" value="start" style="rounded=0;whiteSpace=wrap;html=1;" parent="1" vertex="1">
          <mxGeometry x="300" y="40" width="120" height="60" as="geometry" />
        </mxCell>
        <mxCell id="2CvfH3Uz7irQ21DSUV06-8" value="" style="edgeStyle=orthogonalEdgeStyle;rounded=0;orthogonalLoop=1;jettySize=auto;html=1;" parent="1" source="2CvfH3Uz7irQ21DSUV06-5" target="2CvfH3Uz7irQ21DSUV06-7" edge="1">
          <mxGeometry relative="1" as="geometry" />
        </mxCell>
        <mxCell id="2CvfH3Uz7irQ21DSUV06-5" value="ask" style="rounded=0;whiteSpace=wrap;html=1;" parent="1" vertex="1">
          <mxGeometry x="500" y="40" width="120" height="60" as="geometry" />
        </mxCell>
        <mxCell id="2CvfH3Uz7irQ21DSUV06-10" value="" style="edgeStyle=orthogonalEdgeStyle;rounded=0;orthogonalLoop=1;jettySize=auto;html=1;" parent="1" source="2CvfH3Uz7irQ21DSUV06-7" target="2CvfH3Uz7irQ21DSUV06-9" edge="1">
          <mxGeometry relative="1" as="geometry" />
        </mxCell>
        <mxCell id="2CvfH3Uz7irQ21DSUV06-7" value="before" style="rounded=0;whiteSpace=wrap;html=1;" parent="1" vertex="1">
          <mxGeometry x="700" y="40" width="120" height="60" as="geometry" />
        </mxCell>
        <mxCell id="2CvfH3Uz7irQ21DSUV06-12" value="" style="edgeStyle=orthogonalEdgeStyle;rounded=0;orthogonalLoop=1;jettySize=auto;html=1;" parent="1" source="2CvfH3Uz7irQ21DSUV06-9" target="2CvfH3Uz7irQ21DSUV06-11" edge="1">
          <mxGeometry relative="1" as="geometry" />
        </mxCell>
        <mxCell id="2CvfH3Uz7irQ21DSUV06-9" value="main" style="rounded=0;whiteSpace=wrap;html=1;" parent="1" vertex="1">
          <mxGeometry x="700" y="180" width="120" height="60" as="geometry" />
        </mxCell>
        <mxCell id="2CvfH3Uz7irQ21DSUV06-14" value="" style="edgeStyle=orthogonalEdgeStyle;rounded=0;orthogonalLoop=1;jettySize=auto;html=1;" parent="1" source="2CvfH3Uz7irQ21DSUV06-11" target="2CvfH3Uz7irQ21DSUV06-13" edge="1">
          <mxGeometry relative="1" as="geometry" />
        </mxCell>
        <mxCell id="2CvfH3Uz7irQ21DSUV06-11" value="review" style="rounded=0;whiteSpace=wrap;html=1;" parent="1" vertex="1">
          <mxGeometry x="500" y="180" width="120" height="60" as="geometry" />
        </mxCell>
        <mxCell id="2CvfH3Uz7irQ21DSUV06-13" value="over" style="rounded=0;whiteSpace=wrap;html=1;" parent="1" vertex="1">
          <mxGeometry x="300" y="180" width="120" height="60" as="geometry" />
        </mxCell>
        <mxCell id="2CvfH3Uz7irQ21DSUV06-15" value="过程" style="text;html=1;align=center;verticalAlign=middle;resizable=0;points=[];autosize=1;strokeColor=none;fillColor=none;" parent="1" vertex="1">
          <mxGeometry x="40" y="360" width="50" height="30" as="geometry" />
        </mxCell>
        <mxCell id="2CvfH3Uz7irQ21DSUV06-16" value="" style="rounded=0;whiteSpace=wrap;html=1;" parent="1" vertex="1">
          <mxGeometry x="100" y="360" width="120" height="190" as="geometry" />
        </mxCell>
        <mxCell id="2CvfH3Uz7irQ21DSUV06-17" value="Subject" style="text;html=1;align=center;verticalAlign=middle;whiteSpace=wrap;rounded=0;" parent="1" vertex="1">
          <mxGeometry x="130" y="520" width="60" height="30" as="geometry" />
        </mxCell>
        <mxCell id="2CvfH3Uz7irQ21DSUV06-18" value="Course" style="text;html=1;align=center;verticalAlign=middle;whiteSpace=wrap;rounded=0;" parent="1" vertex="1">
          <mxGeometry x="130" y="360" width="60" height="30" as="geometry" />
        </mxCell>
        <mxCell id="2CvfH3Uz7irQ21DSUV06-19" value="start()" style="text;html=1;align=center;verticalAlign=middle;resizable=0;points=[];autosize=1;strokeColor=none;fillColor=none;" parent="1" vertex="1">
          <mxGeometry x="135" y="390" width="50" height="30" as="geometry" />
        </mxCell>
        <mxCell id="2CvfH3Uz7irQ21DSUV06-20" value="&lt;span style=&quot;color: rgb(0, 0, 0); font-family: Helvetica; font-size: 12px; font-style: normal; font-variant-ligatures: normal; font-variant-caps: normal; font-weight: 400; letter-spacing: normal; orphans: 2; text-align: center; text-indent: 0px; text-transform: none; widows: 2; word-spacing: 0px; -webkit-text-stroke-width: 0px; white-space: normal; background-color: rgb(251, 251, 251); text-decoration-thickness: initial; text-decoration-style: initial; text-decoration-color: initial; display: inline !important; float: none;&quot;&gt;ask&lt;/span&gt;" style="text;whiteSpace=wrap;html=1;" parent="1" vertex="1">
          <mxGeometry x="100" y="500" width="20" height="20" as="geometry" />
        </mxCell>
        <mxCell id="2CvfH3Uz7irQ21DSUV06-21" value="" style="endArrow=none;html=1;rounded=0;exitX=0;exitY=0.75;exitDx=0;exitDy=0;entryX=1;entryY=0.75;entryDx=0;entryDy=0;" parent="1" source="2CvfH3Uz7irQ21DSUV06-16" target="2CvfH3Uz7irQ21DSUV06-16" edge="1">
          <mxGeometry width="50" height="50" relative="1" as="geometry">
            <mxPoint x="380" y="320" as="sourcePoint" />
            <mxPoint x="430" y="270" as="targetPoint" />
          </mxGeometry>
        </mxCell>
        <mxCell id="2CvfH3Uz7irQ21DSUV06-23" value="..." style="text;html=1;align=center;verticalAlign=middle;resizable=0;points=[];autosize=1;strokeColor=none;fillColor=none;" parent="1" vertex="1">
          <mxGeometry x="145" y="430" width="30" height="30" as="geometry" />
        </mxCell>
        <mxCell id="2CvfH3Uz7irQ21DSUV06-24" value="" style="shape=flexArrow;endArrow=classic;html=1;rounded=0;" parent="1" edge="1">
          <mxGeometry width="50" height="50" relative="1" as="geometry">
            <mxPoint x="250" y="444.5" as="sourcePoint" />
            <mxPoint x="360" y="444.82352941176464" as="targetPoint" />
          </mxGeometry>
        </mxCell>
        <mxCell id="2CvfH3Uz7irQ21DSUV06-26" value="" style="rounded=0;whiteSpace=wrap;html=1;" parent="1" vertex="1">
          <mxGeometry x="390" y="360" width="110" height="180" as="geometry" />
        </mxCell>
        <mxCell id="2CvfH3Uz7irQ21DSUV06-27" value="" style="rounded=0;whiteSpace=wrap;html=1;" parent="1" vertex="1">
          <mxGeometry x="400" y="370" width="110" height="180" as="geometry" />
        </mxCell>
        <mxCell id="2CvfH3Uz7irQ21DSUV06-28" value="实例" style="rounded=0;whiteSpace=wrap;html=1;" parent="1" vertex="1">
          <mxGeometry x="410" y="380" width="110" height="180" as="geometry" />
        </mxCell>
        <mxCell id="2CvfH3Uz7irQ21DSUV06-29" value="类群" style="text;html=1;align=center;verticalAlign=middle;resizable=0;points=[];autosize=1;strokeColor=none;fillColor=none;" parent="1" vertex="1">
          <mxGeometry x="650" y="350" width="50" height="30" as="geometry" />
        </mxCell>
        <mxCell id="2CvfH3Uz7irQ21DSUV06-32" value="" style="edgeStyle=orthogonalEdgeStyle;rounded=0;orthogonalLoop=1;jettySize=auto;html=1;" parent="1" source="2CvfH3Uz7irQ21DSUV06-30" target="2CvfH3Uz7irQ21DSUV06-31" edge="1">
          <mxGeometry relative="1" as="geometry" />
        </mxCell>
        <mxCell id="2CvfH3Uz7irQ21DSUV06-33" value="__proto__" style="edgeLabel;html=1;align=center;verticalAlign=middle;resizable=0;points=[];" parent="2CvfH3Uz7irQ21DSUV06-32" vertex="1" connectable="0">
          <mxGeometry x="-0.095" relative="1" as="geometry">
            <mxPoint as="offset" />
          </mxGeometry>
        </mxCell>
        <mxCell id="2CvfH3Uz7irQ21DSUV06-30" value="course1" style="rounded=0;whiteSpace=wrap;html=1;" parent="1" vertex="1">
          <mxGeometry x="90" y="640" width="120" height="60" as="geometry" />
        </mxCell>
        <mxCell id="2CvfH3Uz7irQ21DSUV06-36" value="" style="edgeStyle=orthogonalEdgeStyle;rounded=0;orthogonalLoop=1;jettySize=auto;html=1;" parent="1" source="2CvfH3Uz7irQ21DSUV06-31" target="2CvfH3Uz7irQ21DSUV06-35" edge="1">
          <mxGeometry relative="1" as="geometry" />
        </mxCell>
        <mxCell id="2CvfH3Uz7irQ21DSUV06-37" value="__proto__" style="edgeLabel;html=1;align=center;verticalAlign=middle;resizable=0;points=[];" parent="2CvfH3Uz7irQ21DSUV06-36" vertex="1" connectable="0">
          <mxGeometry x="-0.07" y="1" relative="1" as="geometry">
            <mxPoint as="offset" />
          </mxGeometry>
        </mxCell>
        <mxCell id="2CvfH3Uz7irQ21DSUV06-43" value="" style="edgeStyle=orthogonalEdgeStyle;rounded=0;orthogonalLoop=1;jettySize=auto;html=1;" parent="1" source="2CvfH3Uz7irQ21DSUV06-31" target="2CvfH3Uz7irQ21DSUV06-42" edge="1">
          <mxGeometry relative="1" as="geometry" />
        </mxCell>
        <mxCell id="2CvfH3Uz7irQ21DSUV06-46" value="constructor" style="edgeLabel;html=1;align=center;verticalAlign=middle;resizable=0;points=[];" parent="2CvfH3Uz7irQ21DSUV06-43" vertex="1" connectable="0">
          <mxGeometry x="-0.03" y="-1" relative="1" as="geometry">
            <mxPoint as="offset" />
          </mxGeometry>
        </mxCell>
        <mxCell id="2CvfH3Uz7irQ21DSUV06-31" value="Course.prototype" style="rounded=0;whiteSpace=wrap;html=1;" parent="1" vertex="1">
          <mxGeometry x="90" y="780" width="120" height="60" as="geometry" />
        </mxCell>
        <mxCell id="2CvfH3Uz7irQ21DSUV06-39" value="" style="edgeStyle=orthogonalEdgeStyle;rounded=0;orthogonalLoop=1;jettySize=auto;html=1;" parent="1" source="2CvfH3Uz7irQ21DSUV06-35" target="2CvfH3Uz7irQ21DSUV06-38" edge="1">
          <mxGeometry relative="1" as="geometry" />
        </mxCell>
        <mxCell id="2CvfH3Uz7irQ21DSUV06-40" value="__proto__" style="edgeLabel;html=1;align=center;verticalAlign=middle;resizable=0;points=[];" parent="2CvfH3Uz7irQ21DSUV06-39" vertex="1" connectable="0">
          <mxGeometry relative="1" as="geometry">
            <mxPoint as="offset" />
          </mxGeometry>
        </mxCell>
        <mxCell id="2CvfH3Uz7irQ21DSUV06-35" value="Object.prototype" style="rounded=0;whiteSpace=wrap;html=1;" parent="1" vertex="1">
          <mxGeometry x="90" y="920" width="120" height="60" as="geometry" />
        </mxCell>
        <mxCell id="2CvfH3Uz7irQ21DSUV06-38" value="null" style="rounded=0;whiteSpace=wrap;html=1;" parent="1" vertex="1">
          <mxGeometry x="90" y="1060" width="120" height="60" as="geometry" />
        </mxCell>
        <mxCell id="2CvfH3Uz7irQ21DSUV06-48" value="" style="edgeStyle=orthogonalEdgeStyle;rounded=0;orthogonalLoop=1;jettySize=auto;html=1;" parent="1" source="2CvfH3Uz7irQ21DSUV06-42" target="2CvfH3Uz7irQ21DSUV06-47" edge="1">
          <mxGeometry relative="1" as="geometry" />
        </mxCell>
        <mxCell id="2CvfH3Uz7irQ21DSUV06-49" value="__proto__" style="edgeLabel;html=1;align=center;verticalAlign=middle;resizable=0;points=[];" parent="2CvfH3Uz7irQ21DSUV06-48" vertex="1" connectable="0">
          <mxGeometry x="-0.0938" y="-3" relative="1" as="geometry">
            <mxPoint as="offset" />
          </mxGeometry>
        </mxCell>
        <mxCell id="2CvfH3Uz7irQ21DSUV06-42" value="Course" style="rounded=0;whiteSpace=wrap;html=1;" parent="1" vertex="1">
          <mxGeometry x="290" y="780" width="120" height="60" as="geometry" />
        </mxCell>
        <mxCell id="2CvfH3Uz7irQ21DSUV06-44" value="" style="endArrow=classic;html=1;rounded=0;exitX=0;exitY=0.75;exitDx=0;exitDy=0;entryX=1;entryY=0.75;entryDx=0;entryDy=0;" parent="1" source="2CvfH3Uz7irQ21DSUV06-42" target="2CvfH3Uz7irQ21DSUV06-31" edge="1">
          <mxGeometry width="50" height="50" relative="1" as="geometry">
            <mxPoint x="380" y="900" as="sourcePoint" />
            <mxPoint x="430" y="850" as="targetPoint" />
          </mxGeometry>
        </mxCell>
        <mxCell id="2CvfH3Uz7irQ21DSUV06-45" value="prototype" style="edgeLabel;html=1;align=center;verticalAlign=middle;resizable=0;points=[];" parent="2CvfH3Uz7irQ21DSUV06-44" vertex="1" connectable="0">
          <mxGeometry x="-0.145" y="2" relative="1" as="geometry">
            <mxPoint as="offset" />
          </mxGeometry>
        </mxCell>
        <mxCell id="2CvfH3Uz7irQ21DSUV06-47" value="Funtion.prototype" style="rounded=0;whiteSpace=wrap;html=1;" parent="1" vertex="1">
          <mxGeometry x="650" y="850" width="120" height="60" as="geometry" />
        </mxCell>
        <mxCell id="2CvfH3Uz7irQ21DSUV06-51" value="" style="edgeStyle=orthogonalEdgeStyle;rounded=0;orthogonalLoop=1;jettySize=auto;html=1;" parent="1" source="2CvfH3Uz7irQ21DSUV06-50" target="2CvfH3Uz7irQ21DSUV06-47" edge="1">
          <mxGeometry relative="1" as="geometry" />
        </mxCell>
        <mxCell id="2CvfH3Uz7irQ21DSUV06-52" value="prototype" style="edgeLabel;html=1;align=center;verticalAlign=middle;resizable=0;points=[];" parent="2CvfH3Uz7irQ21DSUV06-51" vertex="1" connectable="0">
          <mxGeometry x="-0.1067" y="2" relative="1" as="geometry">
            <mxPoint as="offset" />
          </mxGeometry>
        </mxCell>
        <mxCell id="2CvfH3Uz7irQ21DSUV06-50" value="Function" style="rounded=0;whiteSpace=wrap;html=1;" parent="1" vertex="1">
          <mxGeometry x="430" y="850" width="120" height="60" as="geometry" />
        </mxCell>
        <mxCell id="2CvfH3Uz7irQ21DSUV06-53" value="" style="endArrow=classic;html=1;rounded=0;exitX=0;exitY=0.75;exitDx=0;exitDy=0;entryX=1;entryY=0.75;entryDx=0;entryDy=0;" parent="1" source="2CvfH3Uz7irQ21DSUV06-47" target="2CvfH3Uz7irQ21DSUV06-50" edge="1">
          <mxGeometry width="50" height="50" relative="1" as="geometry">
            <mxPoint x="380" y="880" as="sourcePoint" />
            <mxPoint x="430" y="830" as="targetPoint" />
          </mxGeometry>
        </mxCell>
        <mxCell id="2CvfH3Uz7irQ21DSUV06-54" value="constructor" style="edgeLabel;html=1;align=center;verticalAlign=middle;resizable=0;points=[];" parent="2CvfH3Uz7irQ21DSUV06-53" vertex="1" connectable="0">
          <mxGeometry x="-0.1933" y="4" relative="1" as="geometry">
            <mxPoint as="offset" />
          </mxGeometry>
        </mxCell>
        <mxCell id="2CvfH3Uz7irQ21DSUV06-65" value="prototype" style="edgeStyle=orthogonalEdgeStyle;rounded=0;orthogonalLoop=1;jettySize=auto;html=1;" parent="1" source="2CvfH3Uz7irQ21DSUV06-56" target="2CvfH3Uz7irQ21DSUV06-35" edge="1">
          <mxGeometry relative="1" as="geometry" />
        </mxCell>
        <mxCell id="2CvfH3Uz7irQ21DSUV06-56" value="Object" style="rounded=0;whiteSpace=wrap;html=1;" parent="1" vertex="1">
          <mxGeometry x="290" y="920" width="120" height="60" as="geometry" />
        </mxCell>
        <mxCell id="2CvfH3Uz7irQ21DSUV06-57" value="" style="endArrow=classic;html=1;rounded=0;exitX=1;exitY=0.5;exitDx=0;exitDy=0;entryX=0.5;entryY=1;entryDx=0;entryDy=0;" parent="1" source="2CvfH3Uz7irQ21DSUV06-56" target="2CvfH3Uz7irQ21DSUV06-47" edge="1">
          <mxGeometry width="50" height="50" relative="1" as="geometry">
            <mxPoint x="380" y="900" as="sourcePoint" />
            <mxPoint x="430" y="850" as="targetPoint" />
            <Array as="points">
              <mxPoint x="710" y="950" />
            </Array>
          </mxGeometry>
        </mxCell>
        <mxCell id="2CvfH3Uz7irQ21DSUV06-58" value="__proto__" style="edgeLabel;html=1;align=center;verticalAlign=middle;resizable=0;points=[];" parent="2CvfH3Uz7irQ21DSUV06-57" vertex="1" connectable="0">
          <mxGeometry x="-0.1432" y="4" relative="1" as="geometry">
            <mxPoint as="offset" />
          </mxGeometry>
        </mxCell>
        <mxCell id="2CvfH3Uz7irQ21DSUV06-59" value="" style="endArrow=none;html=1;rounded=0;entryX=0.5;entryY=1;entryDx=0;entryDy=0;exitX=0.5;exitY=0;exitDx=0;exitDy=0;" parent="1" source="2CvfH3Uz7irQ21DSUV06-56" target="2CvfH3Uz7irQ21DSUV06-42" edge="1">
          <mxGeometry width="50" height="50" relative="1" as="geometry">
            <mxPoint x="380" y="900" as="sourcePoint" />
            <mxPoint x="430" y="850" as="targetPoint" />
          </mxGeometry>
        </mxCell>
        <mxCell id="2CvfH3Uz7irQ21DSUV06-60" value="" style="endArrow=classic;html=1;rounded=0;entryX=0;entryY=0.5;entryDx=0;entryDy=0;" parent="1" target="2CvfH3Uz7irQ21DSUV06-50" edge="1">
          <mxGeometry width="50" height="50" relative="1" as="geometry">
            <mxPoint x="350" y="880" as="sourcePoint" />
            <mxPoint x="430" y="850" as="targetPoint" />
          </mxGeometry>
        </mxCell>
        <mxCell id="2CvfH3Uz7irQ21DSUV06-62" value="constructor" style="edgeLabel;html=1;align=center;verticalAlign=middle;resizable=0;points=[];" parent="2CvfH3Uz7irQ21DSUV06-60" vertex="1" connectable="0">
          <mxGeometry x="-0.155" y="-1" relative="1" as="geometry">
            <mxPoint as="offset" />
          </mxGeometry>
        </mxCell>
        <mxCell id="2CvfH3Uz7irQ21DSUV06-63" value="" style="endArrow=classic;html=1;rounded=0;exitX=1;exitY=0.25;exitDx=0;exitDy=0;entryX=0;entryY=0.25;entryDx=0;entryDy=0;" parent="1" source="2CvfH3Uz7irQ21DSUV06-35" target="2CvfH3Uz7irQ21DSUV06-56" edge="1">
          <mxGeometry width="50" height="50" relative="1" as="geometry">
            <mxPoint x="380" y="900" as="sourcePoint" />
            <mxPoint x="430" y="850" as="targetPoint" />
          </mxGeometry>
        </mxCell>
        <mxCell id="2CvfH3Uz7irQ21DSUV06-64" value="constructor" style="edgeLabel;html=1;align=center;verticalAlign=middle;resizable=0;points=[];" parent="2CvfH3Uz7irQ21DSUV06-63" vertex="1" connectable="0">
          <mxGeometry x="-0.28" relative="1" as="geometry">
            <mxPoint as="offset" />
          </mxGeometry>
        </mxCell>
        <mxCell id="2CvfH3Uz7irQ21DSUV06-68" value="" style="endArrow=classic;html=1;rounded=0;exitX=0.75;exitY=1;exitDx=0;exitDy=0;entryX=0.75;entryY=1;entryDx=0;entryDy=0;" parent="1" source="2CvfH3Uz7irQ21DSUV06-47" target="2CvfH3Uz7irQ21DSUV06-35" edge="1">
          <mxGeometry width="50" height="50" relative="1" as="geometry">
            <mxPoint x="440" y="920" as="sourcePoint" />
            <mxPoint x="490" y="870" as="targetPoint" />
            <Array as="points">
              <mxPoint x="740" y="1000" />
              <mxPoint x="180" y="1000" />
            </Array>
          </mxGeometry>
        </mxCell>
        <mxCell id="2CvfH3Uz7irQ21DSUV06-69" value="__proto__" style="edgeLabel;html=1;align=center;verticalAlign=middle;resizable=0;points=[];" parent="2CvfH3Uz7irQ21DSUV06-68" vertex="1" connectable="0">
          <mxGeometry x="-0.0084" y="-1" relative="1" as="geometry">
            <mxPoint as="offset" />
          </mxGeometry>
        </mxCell>
      </root>
    </mxGraphModel>
  </diagram>
</mxfile>
